<?xml version="1.0" standalone="no"?>
<!DOCTYPE svg PUBLIC "-//W3C//DTD SVG 20010904//EN"
 "http://www.w3.org/TR/2001/REC-SVG-20010904/DTD/svg10.dtd">
<svg version="1.0" xmlns="http://www.w3.org/2000/svg"
 width="260.000000pt" height="260.000000pt" viewBox="0 0 260.000000 260.000000"
 preserveAspectRatio="xMidYMid meet">
<metadata>
Created by potrace 1.11, written by Peter Selinger 2001-2013
</metadata>
<g transform="translate(0.000000,260.000000) scale(0.100000,-0.100000)"
fill="#000000" stroke="none">
<path d="M465 2560 l-28 -29 0 -266 c0 -146 3 -268 7 -272 4 -5 119 -9 254 -9
136 -1 255 -2 265 -3 16 -1 17 -14 15 -158 l-3 -158 -330 -2 c-181 0 -345 -2
-363 -2 l-33 -1 3 -102 3 -103 315 -1 c173 -1 321 -2 328 -3 9 -1 12 -37 12
-146 0 -131 -2 -145 -17 -145 -10 -1 -157 -2 -328 -3 l-310 -2 0 -105 0 -105
349 -2 c193 -1 358 -4 368 -6 17 -5 18 -17 16 -159 l-3 -153 -272 -3 -273 -2
-1 -23 c-4 -111 -1 -507 5 -524 10 -33 54 -63 90 -63 32 0 50 11 296 181 52
37 145 100 205 142 61 42 167 116 238 164 70 48 138 95 151 103 13 8 81 55
152 104 71 50 183 127 249 173 66 45 125 86 130 90 6 4 37 26 70 48 33 22 62
42 65 45 3 3 55 38 115 79 61 40 120 84 133 98 24 26 30 80 12 113 -5 10 -67
58 -137 106 -71 48 -171 117 -223 153 -1317 910 -1423 981 -1460 981 -27 0
-43 -7 -65 -30z"/>
</g>
</svg>
