<?xml version="1.0" standalone="no"?>
<!DOCTYPE svg PUBLIC "-//W3C//DTD SVG 1.1//EN" "http://www.w3.org/Graphics/SVG/1.1/DTD/svg11.dtd" >
<svg xmlns="http://www.w3.org/2000/svg">
<metadata>Generated by IcoMoon</metadata>
<defs>
<font id="icomoon" horiz-adv-x="512">
<font-face units-per-em="512" ascent="480" descent="-32" />
<missing-glyph horiz-adv-x="512" />
<glyph unicode="&#x20;" d="" horiz-adv-x="256" />
<glyph unicode="&#xe600;" d="M256 423.68c-110.592 0-199.68-89.088-199.68-199.68s89.088-199.68 199.68-199.68c110.592 0 199.68 89.088 199.68 199.68s-89.088 199.68-199.68 199.68zM363.52 199.424h-215.040v50.176h216.064v-50.176z" />
<glyph unicode="&#xe601;" d="M256 423.68c-110.592 0-199.68-89.088-199.68-199.68s89.088-199.68 199.68-199.68c110.592 0 199.68 89.088 199.68 199.68s-89.088 199.68-199.68 199.68zM363.52 199.424h-82.944v-82.944h-50.176v82.944h-82.944v50.176h82.944v82.944h50.176v-82.944h82.944v-50.176z" />
<glyph unicode="&#xe602;" d="M22.528 363.264c-10.24 4.096-13.312 0-6.144-8.192l219.136-265.216c7.168-8.192 18.432-8.192 26.624 0l219.136 265.216c7.168 8.192 4.096 12.288-6.144 8.192l-206.848-77.824c-10.24-4.096-27.648-4.096-37.888 0l-207.872 77.824z" />
<glyph unicode="&#xe603;" d="M475.136 84.736c10.24-4.096 13.312 0 6.144 8.192l-219.136 265.216c-7.168 8.192-18.432 8.192-26.624 0l-219.136-265.216c-7.168-8.192-4.096-12.288 6.144-8.192l206.848 77.824c10.24 4.096 27.648 4.096 37.888 0l207.872-77.824z" />
<glyph unicode="&#xe604;" d="M40.96 377.6c-11.264 0-15.36-7.168-8.192-16.384l210.944-284.672c7.168-9.216 17.408-9.216 24.576 0l210.944 284.672c7.168 9.216 3.072 16.384-8.192 16.384h-430.080z" />
<glyph unicode="&#xe605;" d="M471.040 70.4c11.264 0 15.36 7.168 8.192 16.384l-210.944 284.672c-7.168 9.216-17.408 9.216-24.576 0l-210.944-284.672c-7.168-9.216-3.072-16.384 8.192-16.384h430.080z" />
<glyph unicode="&#xe606;" d="M271.36-12.544l184.32 166.912c8.192 7.168 15.36 22.528 15.36 33.792v71.68c0 11.264-7.168 14.336-15.36 7.168l-184.32-157.696c-8.192-7.168-22.528-7.168-30.72 0l-184.32 157.696c-8.192 8.192-15.36 5.12-15.36-6.144v-71.68c0-11.264 7.168-26.624 15.36-33.792l184.32-166.912c8.192-8.192 22.528-8.192 30.72-1.024zM271.36 182.016l184.32 166.912c8.192 8.192 15.36 23.552 15.36 34.816v71.68c0 11.264-7.168 14.336-15.36 7.168l-184.32-157.696c-8.192-7.168-22.528-7.168-30.72 0l-184.32 157.696c-8.192 7.168-15.36 4.096-15.36-7.168v-71.68c0-11.264 7.168-26.624 15.36-33.792l184.32-166.912c8.192-8.192 22.528-8.192 30.72-1.024z" />
<glyph unicode="&#xe607;" d="M240.64 460.544l-184.32-166.912c-8.192-8.192-15.36-23.552-15.36-34.816v-71.68c0-11.264 7.168-14.336 15.36-7.168l184.32 157.696c8.192 7.168 22.528 7.168 30.72 0l184.32-157.696c8.192-7.168 15.36-4.096 15.36 7.168v71.68c0 11.264-7.168 26.624-15.36 33.792l-184.32 166.912c-8.192 8.192-22.528 8.192-30.72 1.024zM240.64 265.984l-184.32-166.912c-8.192-8.192-15.36-23.552-15.36-34.816v-71.68c0-11.264 7.168-14.336 15.36-7.168l184.32 157.696c8.192 7.168 22.528 7.168 30.72 0l184.32-157.696c8.192-7.168 15.36-4.096 15.36 7.168v71.68c0 11.264-7.168 26.624-15.36 33.792l-184.32 166.912c-8.192 8.192-22.528 8.192-30.72 1.024z" />
<glyph unicode="&#xe608;" d="M376.832 356.096l-120.832-119.808-120.832 119.808-71.68-71.68 192.512-192.512 192.512 192.512z" />
<glyph unicode="&#xe609;" d="M135.168 91.904l120.832 119.808 120.832-119.808 71.68 71.68-192.512 192.512-192.512-192.512z" />
<glyph unicode="&#xe60a;" d="M92.16 387.84l163.84-81.92 163.84 81.92-163.84-327.68z" />
<glyph unicode="&#xe60b;" d="M419.84 60.16l-163.84 81.92-163.84-81.92 163.84 327.68z" />
<glyph unicode="&#xe60c;" d="M460.8 224c0-113.108-91.692-204.8-204.8-204.8s-204.8 91.692-204.8 204.8c0 113.108 91.692 204.8 204.8 204.8s204.8-91.692 204.8-204.8zM132.8 284.8h246.4l-123.2-184z" />
<glyph unicode="&#xe60d;" d="M256 428.8c-113.6 0-204.8-91.2-204.8-204.8s91.2-204.8 204.8-204.8 204.8 91.2 204.8 204.8-91.2 204.8-204.8 204.8zM132.8 163.2l123.2 184 123.2-184h-246.4z" />
<glyph unicode="&#xe60e;" d="M256 428.8c-113.6 0-204.8-91.2-204.8-204.8s91.2-204.8 204.8-204.8 204.8 91.2 204.8 204.8-91.2 204.8-204.8 204.8zM256 80l-123.2 246.4 123.2-60.8 123.2 60.8-123.2-246.4z" />
<glyph unicode="&#xe60f;" d="M256 428.8c-113.6 0-204.8-91.2-204.8-204.8s91.2-204.8 204.8-204.8 204.8 91.2 204.8 204.8-91.2 204.8-204.8 204.8zM256 182.4l-123.2-60.8 123.2 246.4 123.2-246.4-123.2 60.8z" />
<glyph unicode="&#xe610;" d="M256 428.8c-113.6 0-204.8-91.2-204.8-204.8s91.2-204.8 204.8-204.8 204.8 91.2 204.8 204.8-91.2 204.8-204.8 204.8zM256 100.8l-144 144 60.8 60.8 83.2-81.6 81.6 81.6 60.8-60.8-142.4-144z" />
<glyph unicode="&#xe611;" d="M256 428.8c-113.6 0-204.8-91.2-204.8-204.8s91.2-204.8 204.8-204.8 204.8 91.2 204.8 204.8-91.2 204.8-204.8 204.8zM337.6 142.4l-81.6 81.6-81.6-81.6-62.4 60.8 144 144 144-144-62.4-60.8z" />
<glyph unicode="&#xe612;" d="M419.84 162.56v81.92l-122.88-71.68v215.040h-81.92v-215.040l-122.88 71.68v-81.92l163.84-102.4z" />
<glyph unicode="&#xe613;" d="M92.16 285.44v-81.92l122.88 71.68v-215.040h81.92v215.040l122.88-71.68v81.92l-163.84 102.4z" />
<glyph unicode="&#xe614;" d="M256 45.824c98.304 0 178.176 79.872 178.176 178.176s-79.872 178.176-178.176 178.176-178.176-79.872-178.176-178.176 79.872-178.176 178.176-178.176zM256 389.888c91.136 0 165.888-74.752 165.888-165.888s-74.752-165.888-165.888-165.888-165.888 74.752-165.888 165.888 74.752 165.888 165.888 165.888zM251.904 107.264c2.048-2.048 6.144-2.048 8.192 0l95.232 95.232c2.048 2.048 2.048 6.144 0 8.192s-6.144 2.048-8.192 0l-84.992-84.992v217.088c0 3.072-3.072 6.144-6.144 6.144s-6.144-3.072-6.144-6.144v-217.088l-84.992 84.992c-1.024 1.024-3.072 2.048-4.096 2.048s-3.072-1.024-4.096-2.048c-2.048-2.048-2.048-6.144 0-8.192l95.232-95.232z" />
<glyph unicode="&#xe615;" d="M256 402.176c-98.304 0-178.176-79.872-178.176-178.176s79.872-178.176 178.176-178.176 178.176 79.872 178.176 178.176-79.872 178.176-178.176 178.176zM256 58.112c-91.136 0-165.888 74.752-165.888 165.888s74.752 165.888 165.888 165.888 165.888-74.752 165.888-165.888-74.752-165.888-165.888-165.888zM260.096 340.736c-2.048 2.048-6.144 2.048-8.192 0l-95.232-95.232c-2.048-2.048-2.048-6.144 0-8.192s6.144-2.048 8.192 0l84.992 84.992v-217.088c0-3.072 3.072-6.144 6.144-6.144s6.144 3.072 6.144 6.144v217.088l84.992-84.992c1.024-1.024 3.072-2.048 4.096-2.048s3.072 1.024 4.096 2.048c2.048 2.048 2.048 6.144 0 8.192l-95.232 95.232z" />
<glyph unicode="&#xe616;" d="M279.466 309.333h-73.245c-4.385 0-7.94-4.029-7.94-9.007v-164.622c0-4.978 3.555-9.007 7.94-9.007h124.445c4.385 0 7.94 4.029 7.94 9.007v116.029l-59.14 57.6zM333.748 135.229c0-2.252-1.897-4.148-4.148-4.148h-122.311c-2.252 0-4.148 1.897-4.148 4.148v164.622c0 2.252 1.897 4.148 4.148 4.148h69.452v-46.815c0-4.978 3.555-9.007 7.94-9.007h49.067v-112.948z" />
<glyph unicode="&#xe617;" d="M279.94 309.333h-73.245c-4.385 0-7.94-4.029-7.94-9.007v-164.622c0-4.978 3.555-9.007 7.94-9.007h124.445c4.385 0 7.94 4.029 7.94 9.007v116.029l-59.141 57.6zM334.222 135.229c0-2.252-1.897-4.148-4.148-4.148h-122.311c-2.252 0-4.148 1.897-4.148 4.148v164.622c0 2.252 1.897 4.148 4.148 4.148h69.452v-46.815c0-4.978 3.555-9.007 7.94-9.007h49.067v-112.948z" />
<glyph unicode="&#xe618;" d="M280.178 309.333h-73.245c-4.385 0-7.94-4.029-7.94-9.007v-164.622c0-4.978 3.555-9.007 7.94-9.007h124.445c4.385 0 7.94 4.029 7.94 9.007v116.029l-59.14 57.6zM334.459 135.229c0-2.252-1.897-4.148-4.148-4.148h-122.311c-2.252 0-4.148 1.897-4.148 4.148v164.622c0 2.252 1.897 4.148 4.148 4.148h69.452v-46.815c0-4.978 3.555-9.007 7.94-9.007h49.067v-112.948z" />
<glyph unicode="&#xe619;" d="M279.111 309.333h-73.245c-4.385 0-7.94-4.029-7.94-9.007v-164.622c0-4.978 3.555-9.007 7.94-9.007h124.445c4.385 0 7.94 4.029 7.94 9.007v116.029l-59.14 57.6zM333.392 135.229c0-2.252-1.897-4.148-4.148-4.148h-122.311c-2.252 0-4.148 1.897-4.148 4.148v164.622c0 2.252 1.897 4.148 4.148 4.148h69.452v-46.815c0-4.978 3.555-9.007 7.94-9.007h48.948v-112.948z" />
<glyph unicode="&#xe61a;" d="M279.466 309.333h-73.245c-4.385 0-7.94-4.029-7.94-9.007v-164.622c0-4.978 3.555-9.007 7.94-9.007h124.445c4.385 0 7.94 4.029 7.94 9.007v116.029l-59.14 57.6zM333.748 135.229c0-2.252-1.897-4.148-4.148-4.148h-122.311c-2.252 0-4.148 1.897-4.148 4.148v164.622c0 2.252 1.897 4.148 4.148 4.148h69.452v-46.815c0-4.978 3.555-9.007 7.94-9.007h49.067v-112.948z" />
<glyph unicode="&#xe61b;" d="M274.844 346.667h-92.681c-5.571 0-10.074-5.096-10.074-11.378v-88.296h6.281v87.704c0 2.845 2.37 5.215 5.215 5.215h87.822v-59.26c0-6.282 4.503-11.378 10.074-11.378h61.985v-142.815c0-2.844-2.37-5.215-5.215-5.215h-154.667c-2.845 0-5.215 2.37-5.215 5.215v13.63h-6.281v-13.274c0-6.281 4.504-11.378 10.074-11.378h157.511c5.57 0 10.074 5.096 10.074 11.378v146.844l-74.904 73.008z" />
<glyph unicode="&#xe61c;" d="M274.608 346.667h-92.681c-5.571 0-10.074-5.096-10.074-11.378v-88.296h6.281v87.704c0 2.845 2.37 5.215 5.215 5.215h87.822v-59.26c0-6.282 4.503-11.378 10.074-11.378h61.985v-142.815c0-2.844-2.37-5.215-5.215-5.215h-154.667c-2.845 0-5.215 2.37-5.215 5.215v13.63h-6.281v-13.274c0-6.281 4.504-11.378 10.074-11.378h157.511c5.57 0 10.074 5.096 10.074 11.378v146.844l-74.904 73.008z" />
<glyph unicode="&#xe61d;" d="M275.437 346.667h-92.681c-5.571 0-10.074-5.096-10.074-11.378v-88.296h6.281v87.704c0 2.845 2.37 5.215 5.215 5.215h87.822v-59.26c0-6.282 4.503-11.378 10.074-11.378h61.985v-142.815c0-2.844-2.37-5.215-5.215-5.215h-154.667c-2.845 0-5.215 2.37-5.215 5.215v13.63h-6.281v-13.274c0-6.281 4.504-11.378 10.074-11.378h157.511c5.57 0 10.074 5.096 10.074 11.378v146.844l-74.904 73.008z" />
<glyph unicode="&#xe61e;" d="M274.134 346.667h-92.681c-5.571 0-10.074-5.096-10.074-11.378v-88.296h6.281v87.704c0 2.845 2.37 5.215 5.215 5.215h87.822v-59.26c0-6.282 4.503-11.378 10.074-11.378h61.985v-142.815c0-2.844-2.37-5.215-5.215-5.215h-154.667c-2.845 0-5.215 2.37-5.215 5.215v13.63h-6.281v-13.274c0-6.281 4.504-11.378 10.074-11.378h157.511c5.57 0 10.074 5.096 10.074 11.378v146.844l-74.904 73.008z" />
<glyph unicode="&#xe61f;" d="M274.844 346.667h-92.681c-5.571 0-10.074-5.096-10.074-11.378v-88.296h6.281v87.704c0 2.845 2.37 5.215 5.215 5.215h87.822v-59.26c0-6.282 4.503-11.378 10.074-11.378h61.985v-142.815c0-2.844-2.37-5.215-5.215-5.215h-154.667c-2.845 0-5.215 2.37-5.215 5.215v13.63h-6.281v-13.274c0-6.281 4.504-11.378 10.074-11.378h157.511c5.57 0 10.074 5.096 10.074 11.378v146.844l-74.904 73.008z" />
<glyph unicode="&#xe620;" d="M422.4 408l-24-35.2c43.2-35.2 70.4-89.6 70.4-148.8 0-60.8-27.2-113.6-70.4-148.8l24-35.2c54.4 41.6 89.6 108.8 89.6 184s-35.2 142.4-89.6 184zM374.4 337.6l-24-35.2c20.8-19.2 33.6-46.4 33.6-76.8s-12.8-57.6-33.6-76.8l24-35.2c32 27.2 52.8 68.8 52.8 113.6 0 41.6-20.8 83.2-52.8 110.4zM256 459.2c-25.6 0-32-14.4-32-14.4s-65.6-72-110.4-104c-9.6-4.8-17.6-9.6-33.6-9.6h-36.8c-24 0-43.2-19.2-43.2-43.2v-128c0-24 19.2-43.2 43.2-43.2h36.8c16 0 25.6-4.8 33.6-9.6 44.8-32 110.4-104 110.4-104s8-14.4 32-14.4 43.2 19.2 43.2 43.2v384c0 24-19.2 43.2-43.2 43.2z" />
<glyph unicode="&#xe621;" d="M291.2 480h-220.8v-512h372.8v363.2l-152 148.8zM302.4 424l81.6-83.2h-83.2l1.6 83.2zM102.4 1.6v444.8h166.4v-139.2h139.2v-305.6h-305.6z" />
<glyph unicode="&#xe622;" d="M171.2 216c-3.2-3.2-3.2-9.6 0-12.8l84.8-84.8 84.8 84.8c3.2 3.2 3.2 9.6 0 12.8s-9.6 3.2-12.8 0l-62.4-62.4v300.8c0 4.8-4.8 9.6-9.6 9.6s-9.6-4.8-9.6-9.6v-300.8l-62.4 62.4c-3.2 4.8-9.6 4.8-12.8 0zM358.4 316.8c-4.8 0-9.6-4.8-9.6-9.6s4.8-9.6 9.6-9.6h89.6v-294.4h-384v294.4h100.8c4.8 0 9.6 4.8 9.6 9.6s-4.8 9.6-9.6 9.6h-120v-332.8h422.4v332.8h-108.8z" />
<glyph unicode="&#xe623;" d="M510.4 94.4v331.2h-508.8v-332.8h227.2v-75.2h-62.4v-17.6h179.2v17.6h-62.4v75.2c0 1.6 227.2 1.6 227.2 1.6zM38.4 385.6h436.8v-251.2h-436.8v251.2z" />
<glyph unicode="&#xe624;" d="M227.042 222.361c0-11.714 6.103-19.702 16.425-19.702 1.413 0 2.826 0.471 3.748 0.471 6.103 1.433 11.735 5.652 15.032 12.206 5.632 9.38 5.161 17.817 5.161 28.611v5.632c-7.045 0-14.090-0.471-20.194-1.884-11.264-3.277-20.173-10.322-20.173-25.334zM256 436.582c-117.412 0-212.583-95.191-212.583-212.582s95.15-212.582 212.583-212.582c117.412 0 212.582 95.171 212.582 212.583 0 117.391-95.171 212.583-212.583 212.583zM264.11 294.595c-3.277 4.69-9.38 7.045-14.992 7.045h-1.884c-9.38-0.942-17.817-6.103-20.153-16.425-0.471-2.334-1.863-4.69-4.69-5.141l-26.276 3.277c-1.905 0.471-4.731 1.863-3.789 5.632 5.632 29.553 30.966 39.895 54.886 41.267h5.632c13.127 0 30.024-3.769 40.817-13.599 13.127-12.185 11.714-28.611 11.714-46.428v-42.209c0-12.677 5.181-18.309 10.322-24.883 1.413-2.334 1.884-5.14-0.471-7.024-5.14-4.69-15.012-13.127-20.644-17.817-1.863-1.392-4.219-1.392-6.574-0.471-8.909 7.495-10.322 10.793-15.483 17.838-8.909-9.401-16.404-14.541-25.334-17.367-5.612-1.392-11.714-2.334-19.21-2.334-22.528 0-40.345 14.070-40.345 41.758 0 22.036 11.735 37.048 29.082 44.094 8.909 4.219 19.681 6.103 30.474 7.516 7.045 0.921 14.090 1.392 20.193 1.843v3.769c0.021 6.533 0.471 14.049-3.277 19.661zM335.155 146.811c-2.724-2.192-5.632-4.158-8.54-5.898l-0.144-0.082c-22.159-13.926-50.729-22.466-76.001-23.019-0.778-0.021-1.577-0.041-2.334-0.041-39.71 0.021-69.222 21.75-96.174 45.138-1.31 1.045-2.253 2.622-2.232 4.362-0.020 1.331 0.553 2.663 1.536 3.563 0.963 0.901 2.274 1.392 3.584 1.392 1.004 0 2.028-0.266 3.031-0.798 28.713-15.933 57.139-32.113 92.016-32.092 0.798 0 1.618 0 2.437 0.021 22.159 0.471 46.121 5.898 68.935 15.155v0.021l2.089 0.839 1.618 0.676c1.106 0.471 2.274 0.983 3.399 1.454 1.003 0.471 2.11 0.717 3.154 0.717 3.338 0 6.41-2.457 6.492-6.103 0-2.068-1.168-4.034-2.867-5.305zM348.18 137.185c-1.106-0.86-2.375-1.454-3.891-1.474h-0.041c-1.003 0-2.192 0.348-3.134 1.229s-1.392 2.192-1.372 3.298c0 0.758 0.164 1.433 0.409 2.068 1.024 2.724 2.58 6.8 3.85 10.875 1.31 4.075 2.253 8.253 2.233 10.506 0.021 0.594-0.062 1.003-0.103 1.168-0.041 0.021-0.103 0.062-0.185 0.082-0.246 0.123-0.676 0.266-1.27 0.389-1.168 0.266-2.887 0.389-4.793 0.368-2.683 0-5.776-0.246-8.704-0.553-3.399-0.491-6.329-0.758-8.315-1.188l-0.144-0.041-0.205-0.021c-0.205-0.021-0.43-0.041-0.676-0.041-1.003 0-2.151 0.266-3.154 1.065-0.983 0.798-1.598 2.151-1.557 3.318 0.062 2.151 1.25 3.563 2.663 4.649 2.294 1.659 4.752 3.051 7.475 4.178v0.103l2.314 0.758 0.082 0.021 4.096 1.372 0.021-0.266c4.055 0.88 8.11 1.229 11.755 1.229 5.099-0.021 9.339-0.615 12.247-1.741 0.983-0.43 1.884-0.819 2.826-1.843l0.103-0.144 0.103-0.123c0.921-1.413 1.392-3.092 1.495-5.305v-0.021l0.021-1.331c-0.164-8.356-3.789-23.265-14.151-32.584z" />
<glyph unicode="&#xe625;" d="M256 436.608c-117.44 0-212.608-95.232-212.608-212.608s95.168-212.608 212.608-212.608c117.44 0 212.608 95.168 212.608 212.608 0 117.376-95.168 212.608-212.608 212.608zM373.696 299.008l-117.696-99.584-116.416 99.584h234.112zM375.424 148.992h-238.848v134.592l119.424-102.144 119.488 101.12v-133.568z" />
<glyph unicode="&#xe626;" d="M256 437.627c-117.986 0-213.627-95.662-213.627-213.627 0-117.986 95.642-213.627 213.627-213.627s213.627 95.642 213.627 213.627c0 117.965-95.662 213.627-213.627 213.627zM303.166 260.168l-2.457-31.949h-32.768v-111.022h-41.39v111.022h-22.077v31.949h22.077v21.463c0 9.462 0.246 24.064 7.107 33.095 7.25 9.564 17.183 16.077 34.283 16.077 27.853 0 39.588-3.973 39.588-3.973l-5.529-32.727c0 0-9.195 2.662-17.797 2.662-8.581 0-16.281-3.072-16.281-11.673v-24.945h35.246z" />
<glyph unicode="&#xe627;" d="M241.602 195.615c-4.976 1.618-10.486 2.56-16.384 2.622-25.273 0.266-47.923-15.401-47.923-34.243 0-19.21 18.248-35.205 43.52-35.205 35.533 0 47.903 15.012 47.903 34.222 0 2.314-0.286 4.587-0.819 6.779-2.745 10.896-12.595 16.281-26.297 25.825zM256 436.582c-117.392 0-212.583-95.191-212.583-212.582 0-117.412 95.191-212.582 212.583-212.582 117.412 0 212.582 95.171 212.582 212.583 0 117.391-95.171 212.583-212.583 212.583zM220.958 118.282c-36.557 0-67.4 14.868-67.4 38.646 0 24.146 28.139 47.432 64.697 47.432 3.973 0 7.619 0.103 11.407 0.103-4.997 4.874-8.97 10.834-8.97 18.207 0 4.342 1.413 8.56 3.358 12.288-1.987-0.143-4.014-0.185-6.103-0.185-30.024 0-50.156 21.361-50.156 47.841 0 25.887 27.771 48.251 57.282 48.251h65.843l-14.725-10.649h-20.869c13.845-5.325 21.218-21.463 21.218-38.031 0-13.906-7.7-25.866-18.596-34.386-10.608-8.294-12.636-11.756-12.636-18.841 0-6.021 11.367-16.261 17.326-20.48 17.408-12.288 23.019-23.716 23.019-42.782 0-23.777-23.019-47.411-64.697-47.411zM358.421 218.901h-25.62v-25.62h-20.623v25.641h-25.62v20.624h25.62v25.621h20.623v-25.621h25.641v-20.644h-0.021zM252.887 280.894c-2.929 22.282-19.047 40.141-36.004 40.653-16.958 0.492-28.345-16.548-25.416-38.83 2.929-22.262 19.047-40.734 36.004-41.246s28.324 17.142 25.416 39.424z" />
<glyph unicode="&#xe628;" d="M256.021 186.583c20.623 0 37.417 16.773 37.417 37.417 0 8.151-2.642 15.667-7.086 21.811-6.8 9.421-17.838 15.606-30.331 15.606s-23.531-6.185-30.331-15.606c-4.423-6.144-7.086-13.66-7.086-21.811 0.020-20.624 16.793-37.417 37.417-37.417zM337.715 269.773v36.024l-4.69-0.020-31.355-0.082 0.123-36.025 35.922 0.103zM314.142 224c0-32.051-26.071-58.122-58.122-58.122s-58.122 26.071-58.122 58.122c0 7.721 1.536 15.073 4.28 21.811h-31.744v-87.019c0-11.243 9.134-20.357 20.377-20.357h130.396c11.243 0 20.377 9.134 20.377 20.357v87.019h-31.744c2.765-6.738 4.301-14.090 4.301-21.811zM256 436.582c-117.412 0-212.583-95.191-212.583-212.582s95.15-212.582 212.583-212.582c117.412 0 212.582 95.171 212.582 212.583 0 117.391-95.171 212.583-212.583 212.583zM362.312 158.791c0-22.651-18.432-41.083-41.083-41.083h-130.417c-22.651 0-41.083 18.432-41.083 41.083v130.417c0 22.651 18.432 41.083 41.083 41.083h130.396c22.651 0 41.083-18.432 41.083-41.083v-130.417h0.021z" />
<glyph unicode="&#xe629;" d="M256 436.582c-117.412 0-212.583-95.191-212.583-212.582s95.171-212.582 212.583-212.582 212.582 95.171 212.582 212.583c0 117.391-95.171 212.583-212.583 212.583zM196.506 135.096h-41.431v132.608h41.431v-132.608zM174.736 284.293h-0.307c-14.992 0-24.72 10.137-24.72 22.978 0 13.087 10.014 23.019 25.314 23.019 15.278 0 24.679-9.912 24.986-22.978 0-12.861-9.708-23.019-25.273-23.019zM362.291 135.096h-46.981v68.629c0 17.961-7.332 30.208-23.511 30.208-12.37 0-19.231-8.274-22.425-16.241-1.188-2.846-1.003-6.841-1.003-10.834v-71.742h-46.572c0 0 0.614 121.549 0 132.608h46.551v-20.808c2.745 9.093 17.613 22.077 41.37 22.077 29.45 0 52.572-19.088 52.572-60.15 0 0 0-73.748 0-73.748z" />
<glyph unicode="&#xe62a;" d="M256 436.582c-117.412 0-212.562-95.191-212.562-212.582s95.15-212.582 212.562-212.582c117.412 0 212.582 95.171 212.582 212.583-0.021 117.391-95.171 212.583-212.583 212.583zM197.918 126.228h-0.020c-5.12-5.12-12.165-8.253-19.947-8.253-7.803 0-14.807 3.134-19.947 8.253v0h-0.020c0 0 0 0 0.020 0-5.12 5.12-8.274 12.083-8.274 19.845s3.154 14.766 8.274 19.886v0c5.141 5.12 12.124 8.274 19.947 8.274 7.803 0 14.828-3.154 19.947-8.274 5.161-5.14 8.294-12.124 8.315-19.886-0.020-7.762-3.174-14.725-8.294-19.845zM249.221 117.709v0.082c-0.041 26.583-10.404 51.692-29.163 70.43-18.739 18.78-43.827 29.204-70.308 29.204v40.571c38.646-0.020 73.687-15.749 99.082-41.185 25.416-25.416 41.124-60.437 41.165-99.123h-40.775zM321.618 117.709c-0.082 94.822-77.087 171.95-171.806 172.012v40.571c58.594-0.021 111.657-23.859 150.16-62.362 38.482-38.523 62.3-91.627 62.341-150.221h-40.694z" />
<glyph unicode="&#xe62b;" d="M256 437.627c-117.986 0-213.627-95.662-213.627-213.627 0-117.986 95.642-213.627 213.627-213.627s213.627 95.642 213.627 213.627c0 117.965-95.642 213.627-213.627 213.627zM341.279 257.239c0.082-1.864 0.123-3.769 0.123-5.673 0-58.020-44.135-124.907-124.907-124.907-24.781 0-47.862 7.271-67.297 19.722 3.42-0.409 6.922-0.615 10.465-0.615 20.562 0 39.506 7.024 54.518 18.8-19.21 0.327-35.43 13.046-41.001 30.474 2.662-0.512 5.427-0.778 8.254-0.778 4.014 0 7.885 0.512 11.571 1.557-20.091 4.014-35.225 21.77-35.225 43.049v0.532c5.918-3.277 12.697-5.263 19.886-5.488-11.776 7.885-19.538 21.32-19.538 36.536 0 8.048 2.171 15.586 5.939 22.098 21.668-26.583 54.006-44.032 90.481-45.875-0.758 3.215-1.126 6.553-1.126 9.994 0 24.228 19.661 43.889 43.888 43.889 12.636 0 24.043-5.325 32.051-13.865 10.014 1.966 19.394 5.611 27.894 10.649-3.277-10.24-10.219-18.841-19.292-24.289 8.868 1.065 17.346 3.42 25.211 6.902-5.858-8.786-13.312-16.527-21.893-22.712z" />
<glyph unicode="&#xe62c;" d="M256 436.582c-117.412 0-212.583-95.191-212.583-212.582s95.15-212.582 212.583-212.582c117.412 0 212.582 95.171 212.582 212.583 0 117.391-95.171 212.583-212.583 212.583zM193.27 309.668c14.684 6 26.644 8.418 36.598 8.601h0.226c5.857 0 11.141-0.697 15.831-1.802 9.81-2.498 23.9-10.936 23.9-10.936v-0.041c-4.055-13.845-16.016-54.825-20.029-68.485-10.526 6.983-21.832 13.353-37.786 13.517h-0.532c-10.281 0-22.528-2.724-37.602-8.888l19.394 68.035zM186.696 165.264c-10.096 0-22.119-2.396-36.987-8.397l19.681 68.219c2.232 0.922 4.423 1.741 6.554 2.499 7.168 2.519 17.387 5.406 28.611 6.328 1.29 0.102 2.54 0.143 3.81 0.143 11.182 0 21.401-3.911 28.733-7.66 3.133-1.7 6.103-3.522 9.052-5.366-2.601-8.93-16.322-55.767-20.357-69.468-10.916 7.271-22.466 13.701-39.096 13.701zM318.669 139.582c-16.302-6.738-29.327-9.401-40.243-9.401-17.224 0-40.182 14.151-40.161 14.131l19.62 68.096c5.98-4.752 19.804-13.824 42.537-13.824 10.445 0 22.815 1.925 37.151 7.065l-18.903-66.068zM342.692 223.754c-0.062-0.021-0.103-0.041-0.123-0.041v-0.082c-13.762-6.492-26.358-9.072-37.683-9.072-17.142 0-31.355 5.918-42.291 13.209-0.062 0.041-0.164 0.082-0.205 0.143l19.886 68.792c6.288-4.894 20.5-14.050 42.046-14.050 10.834 0 23.511 2.314 37.99 8.643l-19.62-67.543z" />
<glyph unicode="&#xe62d;" d="M256 436.582c-117.412 0-212.583-95.191-212.583-212.582s95.171-212.582 212.583-212.582 212.582 95.171 212.582 212.583c0 117.391-95.191 212.583-212.583 212.583zM362.291 185.989c0-36.639-36.639-36.639-36.639-36.639h-139.326c-36.618 0-36.618 36.639-36.618 36.639v76.002c0 36.638 36.618 36.638 36.618 36.638h139.326c36.639 0 36.639-36.638 36.639-36.638s0-76.002 0-76.002zM227.676 183.019l69.591 40.878-69.591 40.878v-81.756z" />
</font>
</defs>
</svg>
