<svg id="Layer_1" data-name="Layer 1" xmlns="http://www.w3.org/2000/svg" viewBox="0 0 480 117.04"><defs><style>.cls-1{fill:#666;}.cls-2{fill:#666;}</style></defs><title>logo_placeholder</title><polygon class="cls-1" points="0 39.4 57.28 72.47 9.96 99.79 9.96 83.4 34.22 69.39 24.25 63.64 0 77.64 0 117.04 77.2 72.47 9.96 33.65 9.96 17.25 77.2 55.77 77.2 44.58 0 0 0 39.4"/><path class="cls-2" d="M118.35,76.57a15.43,15.43,0,0,1-15.68-15.72V60.76A15.54,15.54,0,0,1,118.61,45c5.76,0,9.21,1.92,12.05,4.72l-4.28,4.93c-2.36-2.14-4.76-3.45-7.82-3.45-5.15,0-8.87,4.28-8.87,9.52v0.09c0,5.24,3.62,9.61,8.87,9.61,3.49,0,5.63-1.4,8-3.58l4.28,4.32A15.62,15.62,0,0,1,118.35,76.57Z"/><path class="cls-2" d="M150.22,76.57c-9.43,0-16.2-7-16.2-15.72V60.76C134,52.07,140.88,45,150.31,45s16.2,7,16.2,15.72v0.09C166.51,69.45,159.65,76.57,150.22,76.57Zm9.26-15.81a9.29,9.29,0,0,0-9.26-9.61c-5.42,0-9.17,4.28-9.17,9.52v0.09a9.29,9.29,0,0,0,9.26,9.61c5.42,0,9.17-4.28,9.17-9.52V60.76Z"/><path class="cls-2" d="M196.37,76v-20l-8.6,13.06h-0.17l-8.52-12.93V76h-6.59V45.47h7.25l8,12.93,8-12.93h7.25V76h-6.68Z"/><path class="cls-2" d="M222.22,66.87h-5.11V76h-6.73V45.47h12.49c7.29,0,11.7,4.32,11.7,10.57v0.09C234.58,63.2,229.07,66.87,222.22,66.87Zm5.55-10.7c0-3-2.1-4.63-5.46-4.63h-5.2v9.35h5.33c3.36,0,5.33-2,5.33-4.63V56.17Z"/><path class="cls-2" d="M259.25,76l-2.79-6.86H243.53L240.73,76h-6.86L247,45.26h6.2L266.28,76h-7ZM250,53.34l-4.06,9.91h8.12Z"/><path class="cls-2" d="M292.43,76l-14.8-19.43V76H271V45.47h6.2L291.51,64.3V45.47h6.64V76h-5.72Z"/><path class="cls-2" d="M320.81,63.86V76h-6.72V64L302.33,45.47h7.86l7.29,12.27,7.42-12.27h7.64Z"/><path class="cls-2" d="M371.28,76l-14.8-19.43V76h-6.64V45.47H356L370.36,64.3V45.47H377V76h-5.72Z"/><path class="cls-2" d="M407.08,76l-2.79-6.86H391.36L388.57,76h-6.86l13.1-30.79H401L414.11,76h-7Zm-9.26-22.71-4.06,9.91h8.12Z"/><path class="cls-2" d="M442.71,76v-20l-8.6,13.06h-0.17l-8.52-12.93V76h-6.59V45.47h7.25l8,12.93,8-12.93h7.25V76h-6.68Z"/><path class="cls-2" d="M456.72,76V45.47h23.06v6H463.4v6.2h14.41v6H463.4v6.42H480v6H456.72Z"/></svg>